<?xml version="1.0" encoding="utf-8"?>
<!-- Generator: Adobe Illustrator 22.1.0, SVG Export Plug-In . SVG Version: 6.00 Build 0)  -->
<svg version="1.1" id="Layer_1" xmlns="http://www.w3.org/2000/svg" xmlns:xlink="http://www.w3.org/1999/xlink" x="0px" y="0px"
	 viewBox="0 0 14.7 12.7" style="enable-background:new 0 0 14.7 12.7;" xml:space="preserve">
<style type="text/css">
	.st0{fill:#fff;}
</style>
<g id="Layer_2_1_">
</g>
<g id="Layer_1_1_">
	<g>
		<path class="st0" d="M5.7,12.4L5.7,12.4c-0.6,0-1.1-0.1-1.6-0.4l0,0c0,0-4-2.9-4-4.6l0,0C0.2,6.6,0.6,6,1.3,5.6l0,0
			C2,5.3,2.8,5.4,3.4,5.9l0,0L3.5,6c0.2,0.3,1.4,1.6,2,1.9c0.1-0.1,0.2-0.2,0.2-0.2c0-0.2,0.1-0.3,0.3-0.5C6.2,7,6.4,6.9,6.4,6.7
			l0.9-1.2c0,0,0.3-0.3,0.6-0.7c0.7-0.9,2.7-3.5,3-3.8l0,0c0.5-0.9,1.8-1.3,2.8-0.8C14.6,0.8,15,2,14.4,2.9l-0.2,0.3
			c-0.2,0.3-1,1.3-3.2,4.1L9.6,9.2C9.5,9.3,9.1,9.7,8.9,10c-0.1,0.1-0.2,0.2-0.2,0.2l0,0c0,0-1.1,1.3-1.5,1.6
			C6.7,12.1,6.2,12.3,5.7,12.4z"/>
	</g>
</g>
</svg>
